HIERARCHY
ROOT Hips
{
	OFFSET -0.001795 -0.223333 0.028219
	CHANNELS 6 Xposition Yposition Zposition Zrotation Yrotation Xrotation 
	JOINT LeftUpLeg
	{
		OFFSET 0.069520 -0.091406 -0.006815
		CHANNELS 3 Zrotation Yrotation Xrotation
		JOINT LeftLeg
		{
			OFFSET 0.034277 -0.375199 -0.004496
			CHANNELS 3 Zrotation Yrotation Xrotation
			JOINT LeftFoot
			{
				OFFSET -0.013596 -0.397961 -0.043693
				CHANNELS 3 Zrotation Yrotation Xrotation
				JOINT LeftToe
				{
					OFFSET 0.026358 -0.055791 0.119288
					CHANNELS 3 Zrotation Yrotation Xrotation
					End Site
					{
						OFFSET 0.000000 0.000000 0.000000
					}
				}
			}
		}
	}
	JOINT RightUpLeg
	{
		OFFSET -0.067670 -0.090522 -0.004320
		CHANNELS 3 Zrotation Yrotation Xrotation
		JOINT RightLeg
		{
			OFFSET -0.038290 -0.382569 -0.008850
			CHANNELS 3 Zrotation Yrotation Xrotation
			JOINT RightFoot
			{
				OFFSET 0.015774 -0.398415 -0.042312
				CHANNELS 3 Zrotation Yrotation Xrotation
				JOINT RightToe
				{
					OFFSET -0.025372 -0.048144 0.123348
					CHANNELS 3 Zrotation Yrotation Xrotation
					End Site
					{
						OFFSET 0.000000 0.000000 0.000000
					}
				}
			}
		}
	}
	JOINT Spine
	{
		OFFSET -0.002533 0.108963 -0.026696
		CHANNELS 3 Zrotation Yrotation Xrotation
		JOINT Spine1
		{
			OFFSET 0.005487 0.135180 0.001092
			CHANNELS 3 Zrotation Yrotation Xrotation
			JOINT Spine2
			{
				OFFSET 0.001457 0.052922 0.025425
				CHANNELS 3 Zrotation Yrotation Xrotation
				JOINT Neck
				{
					OFFSET -0.002778 0.213870 -0.042857
					CHANNELS 3 Zrotation Yrotation Xrotation
					JOINT Head
					{
						OFFSET 0.005152 0.064970 0.051349
						CHANNELS 3 Zrotation Yrotation Xrotation
						End Site
						{
							OFFSET 0.000000 0.000000 0.000000
						}
					}
				}
				JOINT LeftShoulder
				{
					OFFSET 0.078845 0.121749 -0.034090
					CHANNELS 3 Zrotation Yrotation Xrotation
					JOINT LeftArm
					{
						OFFSET 0.090977 0.030469 -0.008868
						CHANNELS 3 Zrotation Yrotation Xrotation
						JOINT LeftForeArm
						{
							OFFSET 0.259612 -0.012772 -0.027456
							CHANNELS 3 Zrotation Yrotation Xrotation
							JOINT LeftHand
							{
								OFFSET 0.249234 0.008986 -0.001171
								CHANNELS 3 Zrotation Yrotation Xrotation
								End Site
								{
									OFFSET 0.000000 0.000000 0.000000
								}
							}
						}
					}
				}
				JOINT RightShoulder
				{
					OFFSET -0.081759 0.118833 -0.038615
					CHANNELS 3 Zrotation Yrotation Xrotation
					JOINT RightArm
					{
						OFFSET -0.096012 0.032551 -0.009143
						CHANNELS 3 Zrotation Yrotation Xrotation
						JOINT RightForeArm
						{
							OFFSET -0.253742 -0.013329 -0.021401
							CHANNELS 3 Zrotation Yrotation Xrotation
							JOINT RightHand
							{
								OFFSET -0.255298 0.007772 -0.005559
								CHANNELS 3 Zrotation Yrotation Xrotation
								End Site
								{
									OFFSET 0.000000 0.000000 0.000000
								}
							}
						}
					}
				}
			}
		}
	}
}
MOTION
Frames: 10
Frame Time: 0.050000
-0.053390 0.948260 1.750268 -0.537053 7.120770 -9.629561 -8.605037 -2.110979 -11.758026 3.466855 -1.955464 19.056786 -1.090355 1.790466 7.665326 0.000000 0.000000 0.000000 7.754843 -1.942574 10.914997 0.358454 0.333916 29.818871 -0.869781 -2.284000 -0.002675 0.000000 0.000000 0.000000 -5.132436 -0.209951 13.068219 -2.193474 1.058925 1.818287 3.823124 7.599520 13.335387 -1.198998 3.559792 -21.429975 0.000000 0.000000 0.000000 -13.813645 2.703889 -4.178195 -49.526485 15.005790 -12.540330 -106.195446 -54.957271 68.889306 0.000000 0.000000 0.000000 10.030304 6.874096 3.716154 59.300429 10.766856 -0.864171 95.257832 76.597010 92.524774 0.000000 0.000000 0.000000 
-0.063265 0.936223 1.820712 -0.919819 8.968738 -12.061980 -8.070271 -1.184442 -6.584461 2.997014 -2.426857 23.769114 -0.144252 0.887688 2.137140 0.000000 0.000000 0.000000 3.928177 -0.763364 5.637522 5.494759 -3.584685 47.999157 1.421373 0.684567 6.289455 0.000000 0.000000 0.000000 -6.306346 -0.232451 15.441265 -1.748417 0.892975 0.441352 3.791480 4.753623 14.105992 -1.774146 3.732255 -22.747187 0.000000 0.000000 0.000000 -14.897388 1.983827 -3.717332 -48.225264 9.889571 -10.200448 -108.724953 -59.027122 77.264567 0.000000 0.000000 0.000000 10.745984 4.908415 2.621794 60.328049 6.754958 -3.203235 98.342968 69.483977 87.435212 0.000000 0.000000 0.000000 
-0.074305 0.926951 1.883780 -1.402704 9.943087 -13.438063 -6.851881 -0.285667 -1.180572 2.986815 -2.763350 25.935530 1.960160 2.168705 -3.493343 0.000000 0.000000 0.000000 0.358229 0.204207 -1.995879 4.743768 -4.466741 57.816014 -0.240847 -2.974689 5.994055 0.000000 0.000000 0.000000 -5.935294 -0.339537 16.147361 -0.701857 0.264970 2.469116 1.364476 0.847708 13.558256 -2.430719 3.677403 -23.409941 0.000000 0.000000 0.000000 -18.416638 -2.181896 -1.676638 -47.254961 1.644457 -6.788856 -111.809059 -67.274493 91.750186 0.000000 0.000000 0.000000 12.615896 6.674224 3.075586 60.363916 3.624909 -5.045487 98.094149 68.554469 84.140356 0.000000 0.000000 0.000000 
-0.086656 0.929703 1.943449 -2.348010 10.923062 -14.473269 -5.219984 0.408320 4.126436 4.778142 -3.547871 26.432948 2.324709 1.397034 -6.053236 0.000000 0.000000 0.000000 -1.799680 0.530654 -7.501281 2.742939 -3.114534 55.216512 -1.394038 -4.196372 1.928189 0.000000 0.000000 0.000000 -4.837382 -0.544423 17.678184 0.008070 -0.035721 1.297135 0.494442 -5.129797 13.761117 -5.709489 4.801052 -23.777557 0.000000 0.000000 0.000000 -17.860945 -3.332315 0.222708 -50.161051 -6.918877 -4.149498 -121.298790 -72.937282 111.678021 0.000000 0.000000 0.000000 11.192732 7.590729 2.621298 60.138070 -0.751852 -7.447122 96.273444 65.161782 75.589581 0.000000 0.000000 0.000000 
-0.101147 0.938902 2.003125 -3.317864 12.994396 -13.947869 -2.584828 0.701281 8.417216 7.072624 -3.974597 23.455748 1.117629 -2.397509 -7.058021 0.000000 0.000000 0.000000 -3.957556 0.386198 -9.751579 -0.856552 -0.223812 38.917042 -0.171243 -0.257960 -0.700023 0.000000 0.000000 0.000000 -3.749415 -0.687304 17.058697 2.211757 -1.130177 0.652585 -1.809353 -9.216012 14.092910 -6.781082 5.048810 -22.993326 0.000000 0.000000 0.000000 -18.139986 -3.955522 1.145572 -51.147123 -14.517082 -1.123119 -139.089746 -74.317656 135.922924 0.000000 0.000000 0.000000 11.913462 5.510032 1.284976 58.527616 -6.450830 -10.087778 101.249969 61.334631 74.636043 0.000000 0.000000 0.000000 
-0.118771 0.944599 2.061728 -3.933507 15.178713 -12.477207 -0.203988 0.541645 9.239133 8.195936 -4.410214 23.220638 -0.232502 -2.783077 -3.280008 0.000000 0.000000 0.000000 -4.116871 0.338451 -9.637541 -4.869820 1.573468 27.061042 2.419169 5.465243 1.187018 0.000000 0.000000 0.000000 -3.780288 -0.617864 15.133108 3.499814 -2.193529 3.751180 -1.851013 -11.319399 10.378200 -8.164944 5.718301 -20.248668 0.000000 0.000000 0.000000 -16.899270 -4.758717 1.722103 -52.570018 -17.914686 0.791780 -146.834115 -70.476016 143.482355 0.000000 0.000000 0.000000 11.951230 5.533713 1.006489 57.256162 -10.355030 -11.334634 105.620142 61.704086 78.141167 0.000000 0.000000 0.000000 
-0.139172 0.941963 2.116718 -5.180418 18.536097 -12.222050 3.358089 0.058681 4.991997 7.427673 -6.975061 34.274219 -0.659578 -3.706906 -3.117934 0.000000 0.000000 0.000000 -1.912702 0.415929 -6.784028 -5.432127 1.439486 26.340951 2.419067 5.545925 1.151073 0.000000 0.000000 0.000000 -2.666399 -0.748767 14.660788 3.401460 -2.203886 3.872496 -1.324626 -11.978068 10.239835 -8.122775 5.857402 -18.505096 0.000000 0.000000 0.000000 -16.304709 -6.321498 2.277186 -52.429039 -19.939230 1.778886 -150.768770 -66.563791 145.723366 0.000000 0.000000 0.000000 10.502015 4.131299 0.665145 59.165164 -11.133803 -12.173036 107.797483 63.679053 83.433548 0.000000 0.000000 0.000000 
-0.158081 0.930100 2.164482 -7.196557 20.613592 -13.496950 7.814246 -0.319201 -2.088180 1.886749 -9.064408 50.387945 0.576362 0.773249 -0.603433 0.000000 0.000000 0.000000 0.444594 0.469607 -4.697104 -4.374209 0.605400 29.635332 1.710903 4.479252 -0.827296 0.000000 0.000000 0.000000 -1.445377 -1.117876 16.824734 3.466736 -2.160802 3.193405 -1.029529 -9.813646 10.858469 -6.855919 5.459148 -19.784478 0.000000 0.000000 0.000000 -18.115770 -7.135192 1.890596 -51.058776 -19.369246 1.507520 -147.469486 -64.200918 136.827184 0.000000 0.000000 0.000000 9.438019 3.458088 0.887994 59.589042 -9.544499 -11.381029 111.021235 66.716632 92.560920 0.000000 0.000000 0.000000 
-0.170187 0.919834 2.205129 -7.809529 23.218889 -14.693434 9.249415 -0.585929 -10.837922 -5.205452 -8.601563 62.565924 4.438333 8.246356 -1.827364 0.000000 0.000000 0.000000 1.911282 0.368511 -2.646452 -4.081933 -0.140704 32.686764 0.731153 2.342755 -2.631835 0.000000 0.000000 0.000000 -1.186446 -1.551912 19.560496 3.158086 -1.990061 3.067857 -0.876490 -6.284931 10.884440 -4.987568 4.917840 -19.617065 0.000000 0.000000 0.000000 -19.036572 -9.424799 1.756177 -49.032504 -17.607870 1.055041 -141.994530 -65.699416 126.754798 0.000000 0.000000 0.000000 9.496391 4.032897 1.697536 60.132482 -5.081775 -9.019974 110.761151 72.702877 101.680279 0.000000 0.000000 0.000000 
-0.172568 0.916824 2.244065 -7.529543 24.642759 -14.300430 8.657652 -1.108763 -17.508350 -9.419776 -6.002732 62.946751 7.317789 14.108170 -2.233973 0.000000 0.000000 0.000000 2.012014 0.131107 -0.667859 -3.555724 -0.677970 33.567064 0.414558 1.799122 -4.164124 0.000000 0.000000 0.000000 -1.054170 -1.797984 20.921127 2.529408 -1.381805 1.281028 -1.069174 -3.466776 11.947740 -3.314927 4.369583 -18.837878 0.000000 0.000000 0.000000 -19.009338 -10.362345 1.227895 -49.750072 -12.546005 -0.803849 -135.045712 -65.436961 114.819078 0.000000 0.000000 0.000000 10.439645 4.441306 2.418679 58.124955 -0.856394 -6.695500 109.464899 77.347621 107.257017 0.000000 0.000000 0.000000 
